<mxfile host="app.diagrams.net" modified="2024-05-10T12:46:18.632Z" agent="Mozilla/5.0 (Windows NT 10.0; Win64; x64) AppleWebKit/537.36 (KHTML, like Gecko) Chrome/124.0.0.0 Safari/537.36" etag="ff31lEkQi5-Yrg1jGIhq" version="24.3.1" type="google">
  <diagram name="Page-1" id="lLHEjYpXgNaPMQc6vhhk">
    <mxGraphModel grid="1" page="1" gridSize="10" guides="1" tooltips="1" connect="1" arrows="1" fold="1" pageScale="1" pageWidth="850" pageHeight="1100" math="0" shadow="0">
      <root>
        <mxCell id="0" />
        <mxCell id="1" parent="0" />
        <mxCell id="TOnUGiu1A2S14O3fQKpg-1" value="Professor" style="shape=umlActor;verticalLabelPosition=bottom;verticalAlign=top;html=1;outlineConnect=0;" vertex="1" parent="1">
          <mxGeometry x="185" y="490" width="30" height="60" as="geometry" />
        </mxCell>
        <mxCell id="TOnUGiu1A2S14O3fQKpg-2" value="Student" style="shape=umlActor;verticalLabelPosition=bottom;verticalAlign=top;html=1;outlineConnect=0;" vertex="1" parent="1">
          <mxGeometry x="185" y="340" width="30" height="60" as="geometry" />
        </mxCell>
        <mxCell id="TOnUGiu1A2S14O3fQKpg-5" value="" style="rounded=1;whiteSpace=wrap;html=1;" vertex="1" parent="1">
          <mxGeometry x="305" y="90" width="250" height="650" as="geometry" />
        </mxCell>
        <mxCell id="TOnUGiu1A2S14O3fQKpg-6" value="&lt;font style=&quot;font-size: 18px;&quot;&gt;System&lt;/font&gt;" style="text;html=1;align=center;verticalAlign=middle;whiteSpace=wrap;rounded=0;" vertex="1" parent="1">
          <mxGeometry x="400" y="90" width="60" height="30" as="geometry" />
        </mxCell>
        <mxCell id="TOnUGiu1A2S14O3fQKpg-13" value="View Tuitions" style="ellipse;whiteSpace=wrap;html=1;" vertex="1" parent="1">
          <mxGeometry x="360" y="240" width="140" height="70" as="geometry" />
        </mxCell>
        <mxCell id="TOnUGiu1A2S14O3fQKpg-15" value="Pay Tuition" style="ellipse;whiteSpace=wrap;html=1;" vertex="1" parent="1">
          <mxGeometry x="360" y="340" width="140" height="70" as="geometry" />
        </mxCell>
        <mxCell id="TOnUGiu1A2S14O3fQKpg-16" value="&amp;lt;&amp;lt;include&amp;gt;&amp;gt;" style="html=1;verticalAlign=bottom;labelBackgroundColor=none;endArrow=open;endFill=0;dashed=1;rounded=0;entryX=0.5;entryY=1;entryDx=0;entryDy=0;exitX=0.5;exitY=0;exitDx=0;exitDy=0;" edge="1" parent="1" source="TOnUGiu1A2S14O3fQKpg-15" target="TOnUGiu1A2S14O3fQKpg-13">
          <mxGeometry x="-0.5" y="35" width="160" relative="1" as="geometry">
            <mxPoint x="315" y="440" as="sourcePoint" />
            <mxPoint x="475" y="440" as="targetPoint" />
            <mxPoint as="offset" />
          </mxGeometry>
        </mxCell>
        <mxCell id="TOnUGiu1A2S14O3fQKpg-20" value="" style="endArrow=none;html=1;rounded=0;entryX=0;entryY=0.5;entryDx=0;entryDy=0;exitX=1;exitY=0.3333333333333333;exitDx=0;exitDy=0;exitPerimeter=0;" edge="1" parent="1" source="TOnUGiu1A2S14O3fQKpg-2" target="TOnUGiu1A2S14O3fQKpg-13">
          <mxGeometry width="50" height="50" relative="1" as="geometry">
            <mxPoint x="265" y="340" as="sourcePoint" />
            <mxPoint x="375" y="320" as="targetPoint" />
          </mxGeometry>
        </mxCell>
        <mxCell id="TOnUGiu1A2S14O3fQKpg-21" value="" style="endArrow=none;html=1;rounded=0;entryX=0;entryY=0.5;entryDx=0;entryDy=0;" edge="1" parent="1" target="TOnUGiu1A2S14O3fQKpg-15">
          <mxGeometry width="50" height="50" relative="1" as="geometry">
            <mxPoint x="215" y="360" as="sourcePoint" />
            <mxPoint x="375" y="320" as="targetPoint" />
          </mxGeometry>
        </mxCell>
        <mxCell id="TOnUGiu1A2S14O3fQKpg-23" value="View Attendance Rate" style="ellipse;whiteSpace=wrap;html=1;" vertex="1" parent="1">
          <mxGeometry x="360" y="440" width="140" height="70" as="geometry" />
        </mxCell>
        <mxCell id="TOnUGiu1A2S14O3fQKpg-25" value="" style="endArrow=none;html=1;rounded=0;exitX=1;exitY=0.3333333333333333;exitDx=0;exitDy=0;exitPerimeter=0;entryX=0;entryY=0.5;entryDx=0;entryDy=0;" edge="1" parent="1" source="TOnUGiu1A2S14O3fQKpg-2" target="TOnUGiu1A2S14O3fQKpg-23">
          <mxGeometry width="50" height="50" relative="1" as="geometry">
            <mxPoint x="218" y="400" as="sourcePoint" />
            <mxPoint x="275" y="450" as="targetPoint" />
          </mxGeometry>
        </mxCell>
        <mxCell id="TOnUGiu1A2S14O3fQKpg-26" value="Payment Service" style="shape=umlActor;verticalLabelPosition=bottom;verticalAlign=top;html=1;" vertex="1" parent="1">
          <mxGeometry x="635" y="340" width="30" height="60" as="geometry" />
        </mxCell>
        <mxCell id="TOnUGiu1A2S14O3fQKpg-27" value="" style="endArrow=none;html=1;rounded=0;entryX=0;entryY=0.3333333333333333;entryDx=0;entryDy=0;entryPerimeter=0;exitX=1;exitY=0.5;exitDx=0;exitDy=0;" edge="1" parent="1" source="TOnUGiu1A2S14O3fQKpg-15" target="TOnUGiu1A2S14O3fQKpg-26">
          <mxGeometry width="50" height="50" relative="1" as="geometry">
            <mxPoint x="595" y="250" as="sourcePoint" />
            <mxPoint x="740" y="265" as="targetPoint" />
          </mxGeometry>
        </mxCell>
        <mxCell id="TOnUGiu1A2S14O3fQKpg-28" value="View Exams" style="ellipse;whiteSpace=wrap;html=1;" vertex="1" parent="1">
          <mxGeometry x="360" y="540" width="140" height="70" as="geometry" />
        </mxCell>
        <mxCell id="TOnUGiu1A2S14O3fQKpg-29" value="Schedule Exam" style="ellipse;whiteSpace=wrap;html=1;" vertex="1" parent="1">
          <mxGeometry x="360" y="640" width="140" height="70" as="geometry" />
        </mxCell>
        <mxCell id="TOnUGiu1A2S14O3fQKpg-30" value="" style="endArrow=none;html=1;rounded=0;exitX=1;exitY=0.3333333333333333;exitDx=0;exitDy=0;exitPerimeter=0;entryX=0;entryY=0.5;entryDx=0;entryDy=0;" edge="1" parent="1" source="TOnUGiu1A2S14O3fQKpg-1" target="TOnUGiu1A2S14O3fQKpg-28">
          <mxGeometry width="50" height="50" relative="1" as="geometry">
            <mxPoint x="225" y="510" as="sourcePoint" />
            <mxPoint x="370" y="625" as="targetPoint" />
          </mxGeometry>
        </mxCell>
        <mxCell id="TOnUGiu1A2S14O3fQKpg-31" value="" style="endArrow=none;html=1;rounded=0;exitX=1;exitY=0.3333333333333333;exitDx=0;exitDy=0;exitPerimeter=0;entryX=0;entryY=0.5;entryDx=0;entryDy=0;" edge="1" parent="1" source="TOnUGiu1A2S14O3fQKpg-1" target="TOnUGiu1A2S14O3fQKpg-29">
          <mxGeometry width="50" height="50" relative="1" as="geometry">
            <mxPoint x="245" y="575" as="sourcePoint" />
            <mxPoint x="390" y="640" as="targetPoint" />
          </mxGeometry>
        </mxCell>
        <mxCell id="TOnUGiu1A2S14O3fQKpg-33" value="&amp;lt;&amp;lt;include&amp;gt;&amp;gt;" style="html=1;verticalAlign=bottom;labelBackgroundColor=none;endArrow=open;endFill=0;dashed=1;rounded=0;exitX=0.5;exitY=0;exitDx=0;exitDy=0;entryX=0.5;entryY=1;entryDx=0;entryDy=0;" edge="1" parent="1" source="TOnUGiu1A2S14O3fQKpg-29" target="TOnUGiu1A2S14O3fQKpg-28">
          <mxGeometry x="-0.3333" y="35" width="160" relative="1" as="geometry">
            <mxPoint x="525" y="610" as="sourcePoint" />
            <mxPoint x="525" y="580" as="targetPoint" />
            <mxPoint as="offset" />
          </mxGeometry>
        </mxCell>
        <mxCell id="TOnUGiu1A2S14O3fQKpg-36" value="View Academic&lt;div&gt;Schedule&lt;/div&gt;" style="ellipse;whiteSpace=wrap;html=1;" vertex="1" parent="1">
          <mxGeometry x="360" y="150" width="140" height="70" as="geometry" />
        </mxCell>
        <mxCell id="TOnUGiu1A2S14O3fQKpg-37" value="" style="endArrow=none;html=1;rounded=0;entryX=0;entryY=0.5;entryDx=0;entryDy=0;exitX=1;exitY=0.3333333333333333;exitDx=0;exitDy=0;exitPerimeter=0;" edge="1" parent="1" source="TOnUGiu1A2S14O3fQKpg-2" target="TOnUGiu1A2S14O3fQKpg-36">
          <mxGeometry width="50" height="50" relative="1" as="geometry">
            <mxPoint x="225" y="370" as="sourcePoint" />
            <mxPoint x="370" y="285" as="targetPoint" />
          </mxGeometry>
        </mxCell>
      </root>
    </mxGraphModel>
  </diagram>
</mxfile>
